<svg width="840" height="840" viewBox="0 0 840 840" fill="none" xmlns="http://www.w3.org/2000/svg">
<path d="M330.58 34C343.108 34.0001 355.415 37.2907 366.273 43.5381L366.274 43.5371L533.28 138.969L533.372 139.021C540.214 142.972 546.326 148.012 551.483 153.914C561.898 154.819 572.012 157.999 581.104 163.261C581.828 163.68 582.531 164.138 583.208 164.631L713.528 259.636C723.864 265.89 732.456 274.662 738.498 285.141C744.773 296.022 748.08 308.362 748.093 320.922V512.295C748.085 520.157 746.016 528.003 744.422 533.117C742.701 538.64 740.726 543.467 739.514 546.109C734.142 557.814 723.949 563.059 715.354 564.688C707.71 566.138 700.53 565.035 695.872 563.995C690.849 562.874 686.392 561.268 683.371 560.055C681.81 559.428 680.508 558.855 679.558 558.42C679.08 558.201 678.685 558.014 678.383 557.869C678.232 557.796 678.102 557.735 677.998 557.684C677.946 557.658 677.9 557.635 677.86 557.615C677.84 557.605 677.822 557.595 677.805 557.587C677.796 557.583 677.788 557.579 677.78 557.575C677.776 557.573 677.771 557.57 677.77 557.569C677.769 557.563 677.821 557.454 679.099 554.9L688.449 536.235L677.759 557.564C675.841 556.603 674.061 555.387 672.468 553.95L569.159 460.751V637.695C569.146 650.247 565.833 662.574 559.552 673.44C553.271 684.307 544.242 693.331 533.372 699.606C533.342 699.624 533.311 699.642 533.28 699.659L366.274 795.091L366.273 795.09C358.719 799.437 350.462 802.35 341.918 803.721C338.545 805.547 334.683 806.585 330.578 806.585C326.472 806.585 322.609 805.547 319.235 803.721C310.693 802.349 302.438 799.436 294.885 795.09V795.091L127.88 699.659C127.849 699.642 127.818 699.624 127.787 699.606C116.917 693.331 107.889 684.307 101.607 673.44C95.3263 662.574 92.0139 650.247 92.001 637.695C92.001 637.687 92 637.679 92 637.671V446.808C92 446.8 92.001 446.791 92.001 446.783C92.0107 437.323 93.8962 427.99 97.5137 419.313C93.8964 410.637 92.0097 401.305 92 391.845V200.933C92.0113 189.875 94.586 178.992 99.4932 169.128C100.013 167.443 100.729 165.789 101.649 164.198C102.715 162.355 103.991 160.71 105.428 159.271C111.342 151.031 118.957 144.12 127.787 139.021L127.88 138.969L294.885 43.5371V43.5381C305.743 37.2903 318.051 34 330.58 34ZM387.702 536.996L354.436 556.24V746.898L509.524 658.276C513.143 656.185 516.149 653.18 518.241 649.562C520.331 645.946 521.435 641.846 521.443 637.671V460.573L387.702 536.996ZM139.717 637.646L139.73 638.43C139.863 642.342 140.956 646.166 142.919 649.562C145.013 653.184 148.022 656.191 151.646 658.283L306.72 746.896V556.236L273.647 537.105L225.21 509.427L139.717 462.968V637.646ZM569.159 391.845C569.157 393.899 569.063 395.948 568.886 397.985C575.011 401.344 580.377 406.122 585.563 411.288L700.026 514.548C700.041 514.478 700.057 514.409 700.07 514.341C700.202 513.683 700.284 513.157 700.331 512.763C700.379 512.359 700.377 512.197 700.377 512.246V320.971L700.363 320.182C700.23 316.241 699.131 312.391 697.162 308.977C695.062 305.334 692.047 302.317 688.426 300.222C687.701 299.802 686.999 299.345 686.322 298.852L569.159 213.439V391.845ZM139.717 391.796L139.73 392.579C139.863 396.491 140.956 400.315 142.919 403.711C143.916 405.435 145.122 407.019 146.501 408.433L258.256 473.078L306.716 499.411V320.922C306.716 320.772 306.719 320.622 306.72 320.473V310.387L139.717 213.78V391.796ZM358.053 308.297C357.914 308.521 357.778 308.748 357.646 308.977C355.584 312.554 354.479 316.608 354.436 320.745V496.78L506.9 409.446C511.137 405.356 515.538 401.601 520.406 398.726C521.086 396.496 521.439 394.17 521.443 391.82V213.781L358.053 308.297ZM330.58 81.7168C326.392 81.7168 322.277 82.8191 318.65 84.9131C318.62 84.9307 318.589 84.9483 318.559 84.9658L164.505 172.996L329.57 268.48C333.486 264.836 337.813 261.626 342.481 258.924L342.573 258.87L494.569 171.805L342.601 84.9658C342.57 84.9483 342.539 84.9307 342.509 84.9131C338.882 82.8192 334.768 81.7169 330.58 81.7168Z" fill="black"/>
</svg>
