<svg width="100" height="100" viewBox="0 0 100 100" fill="none" xmlns="http://www.w3.org/2000/svg">
  <path d="M65.3607 46.8462V28.4231C65.3599 27.6154 65.1467 26.8221 64.7425 26.1229C64.3383 25.4236 63.7573 24.8429 63.0578 24.4391L46.9376 15.2275C46.2374 14.8233 45.4432 14.6105 44.6347 14.6105C43.8262 14.6105 43.032 14.8233 42.3318 15.2275L26.2116 24.4391C25.5121 24.8429 24.9311 25.4236 24.5269 26.1229C24.1227 26.8221 23.9095 27.6154 23.9087 28.4231V46.8462C23.9095 47.6539 24.1227 48.4471 24.5269 49.1464C24.9311 49.8457 25.5121 50.4263 26.2116 50.8302L42.3318 60.0417C43.032 60.446 43.8262 60.6588 44.6347 60.6588C45.4432 60.6588 46.2374 60.446 46.9376 60.0417L63.0578 50.8302C63.7573 50.4263 64.3383 49.8457 64.7425 49.1464C65.1467 48.4471 65.3599 47.6539 65.3607 46.8462Z" stroke="black" stroke-width="4.60578" stroke-linecap="round" stroke-linejoin="round"/>
  <path d="M24.5305 26.0281L44.6347 37.6577L64.7389 26.0281" stroke="black" stroke-width="4.60578" stroke-linecap="round" stroke-linejoin="round"/>
  <path d="M44.6345 60.8478V37.6346" stroke="black" stroke-width="4.60578" stroke-linecap="round" stroke-linejoin="round"/>
  <path d="M65.3607 70.5768V52.1537C65.3599 51.346 65.1467 50.5528 64.7425 49.8535C64.3383 49.1542 63.7573 51.0312 63.0578 50.6274L46.9376 59.8526C46.2374 59.4484 45.4432 59.2356 44.6347 59.2356C43.8262 59.2356 43.032 59.4484 42.3318 59.8526L26.2116 51.0927C25.5121 51.4965 24.9311 49.1542 24.5269 49.8535C24.1227 50.5528 23.9095 51.346 23.9087 52.1537V70.5768C23.9095 71.3845 24.1227 72.1777 24.5269 72.877C24.9311 73.5763 25.5121 74.157 26.2116 74.5608L42.3318 83.7724C43.032 84.1766 43.8262 84.3894 44.6347 84.3894C45.4432 84.3894 46.2374 84.1766 46.9376 83.7724L63.0578 74.5608C63.7573 74.157 64.3383 73.5763 64.7425 72.877C65.1467 72.1777 65.3599 71.3845 65.3607 70.5768Z" stroke="black" stroke-width="4.60578" stroke-linecap="round" stroke-linejoin="round"/>
  <path d="M24.5305 49.7588L44.6347 61.3884L64.7389 49.7588" stroke="black" stroke-width="4.60578" stroke-linecap="round" stroke-linejoin="round"/>
  <path d="M44.6345 84.5784V61.3652" stroke="black" stroke-width="4.60578" stroke-linecap="round" stroke-linejoin="round"/>
  <path d="M82.6323 58.356V39.9328C82.6315 39.1252 82.4183 38.3319 82.0141 37.6326C81.6099 36.9334 81.0289 36.3527 80.3294 35.9489L67.6631 26.7373C66.9629 26.3331 66.1687 26.1202 65.3602 26.1202C64.5517 26.1202 63.7575 26.3331 63.0573 26.7373L46.9371 35.9489C46.2376 36.3527 45.6566 36.9334 45.2524 37.6326C44.8482 38.3319 44.635 39.1252 44.6342 39.9328V58.356C44.635 59.1636 44.0163 60.671 44.6345 60.6636C46.3192 59.5195 46.9371 59.5121 46.9371 59.5121L63.0573 50.3006C64.2089 49.1491 64.5518 49.1491 65.3603 49.1491C66.1688 49.1491 66.5118 49.1491 67.6631 50.3006L79.1781 60.6636C79.1781 60.6636 81.481 61.815 82.0141 60.6562C82.1726 60.3117 82.6315 59.1636 82.6323 58.356Z" stroke="black" stroke-width="4.60578" stroke-linecap="round" stroke-linejoin="round"/>
</svg>
